<?xml version="1.0" standalone="no"?><!DOCTYPE svg PUBLIC "-//W3C//DTD SVG 1.1//EN" "http://www.w3.org/Graphics/SVG/1.1/DTD/svg11.dtd"><svg t="1583843263523" class="icon" viewBox="0 0 1024 1024" version="1.1" xmlns="http://www.w3.org/2000/svg" p-id="2316" xmlns:xlink="http://www.w3.org/1999/xlink" width="128" height="128"><defs><style type="text/css"></style></defs><path d="M124.995 0h743.62c48.635 2.2 91.744 45.16 91.382 94.356 0.662 128.965 0 257.93 0.362 386.884 0 14.799 4.512 30.772-3.987 44.284-7.637 20.174-37.372 23.91-51.246 8.287-7.725-8.65-9.012-20.736-8.912-31.898 0.262-105.817 0-211.647 0.15-317.477-0.1-18.998 1.125-38.66-5.787-56.67C877.003 88.394 835.23 61.62 793.92 63.92c-201.31 0.263-402.608-0.2-603.856 0.263-50.07-1.25-93.993 45.109-93.543 94.455q-0.375 317.54-0.1 635.041c-0.95 28.636 9.425 58.284 31.548 77.17 19.186 17.973 46.122 24.685 71.82 25.085 92.305 0.15 184.611-0.262 276.867 0.15 19.349-1.587 39.11 15.462 35.072 35.735-0.512 15.674-15.199 26.11-29.535 28.31-114.58-0.362-229.258-0.15-343.887-0.15-24.261 0.1-49.31-5.536-68.745-20.635-24.623-18.074-37.498-48.747-37.173-78.745q-0.15-381.51 0-763.081C30.49 47.522 74.211-0.362 124.945 0.025z m0 0" p-id="2317"></path><path d="M222.213 160.5c178.574-1.25 357.299-0.1 535.923-0.612 17-1.587 37.785 5.887 40.96 24.723 5.474 19.712-11.25 39.835-31.485 39.11-178.937 0.663-357.912 0.1-536.899 0.313-15.873 1.125-34.31-7.375-37.172-24.424-5.474-18.573 9.424-38.647 28.673-39.11z m-0.5 256.032c37.06-1.487 74.182 0 111.242-0.662 12.899 0.312 27.498-1.438 38.497 6.812 16.586 11.361 16.486 39.16 0 50.583-11 8.187-25.448 6.5-38.297 6.8-35.897-0.413-71.732 0.362-107.567-0.313-16.336 0.413-32.61-12.136-32.923-29.185-2.412-17.149 11.987-33.273 28.973-34.048z m406.695 42.497c10.087-9.924 26.673-12.5 38.91-4.912 16.636 8.65 20.373 33.222 7.774 46.896-21.76 24.474-46.484 46.134-68.545 70.295 31.436 32.048 63.483 63.483 95.068 95.38 67.07-38.447 158.201-34.81 218.047 15.875 40.347 31.585 66.245 80.181 70.857 131.115 7.112 60.77-19.398 122.978-65.07 162.963-33.485 31.073-78.594 45.36-123.59 47.359h-4.763c-28.923-3.075-58.62-6.65-84.369-21.248-52.159-27.286-90.668-79.307-101.155-137.315-9.424-54.834 5.787-113.855 41.872-156.464-45.672-46.647-92.368-92.168-138.49-138.34-10.137-10.649-22.636-19.86-28.873-33.585-7.5-18.386 6.087-41.522 26.41-42.497 21.712-2.15 34.61 18.436 48.847 31.173 22.724-21.91 44.184-45.11 67.12-66.808m112.217 261.056c-7.887 14.9-19.711 27.498-37.572 28.673-27.498 32.098-37.785 78.432-25.136 118.929 10.137 33.535 33.585 64.145 66.095 78.532 34.248 17.36 76.245 17.923 110.68 0.725 58.32-25.086 88.518-99.33 65.382-158.251-22.323-70.908-115.504-106.892-179.449-68.608z m0 0" p-id="2318"></path></svg>