<?xml version="1.0" standalone="no"?><!DOCTYPE svg PUBLIC "-//W3C//DTD SVG 1.1//EN" "http://www.w3.org/Graphics/SVG/1.1/DTD/svg11.dtd"><svg t="1583843587815" class="icon" viewBox="0 0 1024 1024" version="1.1" xmlns="http://www.w3.org/2000/svg" p-id="5940" xmlns:xlink="http://www.w3.org/1999/xlink" width="128" height="128"><defs><style type="text/css"></style></defs><path d="M0 170.203429v55.954285c0 16.896 15.36 31.012571 33.792 31.012572H384V139.702857H33.792C15.36 139.190857 0 153.307429 0 170.203429z m1024 370.029714V484.205714c0-16.969143-15.36-31.085714-33.792-31.085714H469.577143v117.540571h520.777143c18.358857 0 33.718857-13.604571 33.718857-30.500571z m0-314.075429v-55.954285c0-16.896-15.36-31.012571-33.792-31.012572H682.496V256.731429h307.712c18.432 0 33.792-13.677714 33.792-30.573715z m0 627.565715v-55.881143c0-16.969143-15.36-31.012571-33.792-31.012572h-179.712v117.540572h179.712c18.432 0.438857 33.792-13.165714 33.792-30.573715z m-256 70.070857V727.771429c0-21.577143-18.944-38.985143-42.422857-38.985143H597.577143c-23.625143 0-42.569143 17.408-42.569143 38.985143v196.022857c0 21.650286 19.017143 39.058286 42.496 39.058285h128c23.552 0.438857 42.496-17.408 42.496-39.058285zM0 797.842286v55.954285c0 16.896 15.36 31.012571 33.792 31.012572H512V767.268571H33.792c-18.432 0-33.792 13.604571-33.792 30.573715z m426.496-187.611429V413.769143c0-21.650286-18.944-39.058286-42.422857-39.058286H256c-23.625143 0-42.569143 17.408-42.569143 39.058286v196.022857c0 21.650286 19.017143 38.985143 42.496 38.985143h128c23.552 0.512 42.496-16.896 42.496-38.546286zM0.073143 483.766857v55.954286c0 16.969143 15.36 31.012571 33.718857 31.012571h137.216V453.193143H33.792c-18.432 0-33.792 13.677714-33.792 30.573714zM640 296.228571V100.205714c0-21.650286-19.017143-39.058286-42.569143-39.058285H469.577143c-23.552 0-42.422857 17.408-42.422857 38.985142v196.022858c0 21.650286 18.870857 39.058286 42.422857 39.058285h128c23.552 0 42.496-17.408 42.496-38.985143z" p-id="5941"></path></svg>