<?xml version="1.0" standalone="no"?><!DOCTYPE svg PUBLIC "-//W3C//DTD SVG 1.1//EN" "http://www.w3.org/Graphics/SVG/1.1/DTD/svg11.dtd"><svg t="1583843605420" class="icon" viewBox="0 0 1024 1024" version="1.1" xmlns="http://www.w3.org/2000/svg" p-id="6695" xmlns:xlink="http://www.w3.org/1999/xlink" width="128" height="128"><defs><style type="text/css"></style></defs><path d="M802.24 955.648H235.328a120.128 120.128 0 0 1-120-120V188.416c0-66.176 53.824-120 120-120h566.912c66.176 0 120 53.824 120 120v647.232a120.128 120.128 0 0 1-120 120zM235.328 132.416a56.128 56.128 0 0 0-56 56v647.232c0 30.848 25.152 56 56 56h566.912a56.128 56.128 0 0 0 56-56V188.416a56.128 56.128 0 0 0-56-56H235.328z" fill="" p-id="6696"></path><path d="M40.704 215.936h188.16v600.832H40.704z" fill="#FFFFFF" p-id="6697"></path><path d="M260.864 848.768H8.704V183.936h252.16v664.832z m-188.16-64h124.16V247.936h-124.16v536.832z" fill="#FFFFFF" p-id="6698"></path><path d="M129.792 884.672c-7.296-1.024-14.976-18.56-17.536-88.832a39.68 39.68 0 0 1 35.52-30.72c18.944-0.896 30.848 14.272 32 15.68l-0.064 7.68c0 40.576 3.392 65.792-0.768 66.688-1.152 0.256-1.28-1.6-3.648-2.432-6.272-2.176-13.696 8.576-27.392 20.032-9.856 8.192-14.784 12.352-18.112 11.904zM208.384 352.384H75.136a35.52 35.52 0 0 1 0-70.912h133.248c19.52 0 35.456 15.936 35.456 35.456a35.584 35.584 0 0 1-35.456 35.456zM663.872 352.384h-302.72a35.52 35.52 0 0 1 0-70.912h302.72c19.52 0 35.456 15.936 35.456 35.456a35.584 35.584 0 0 1-35.456 35.456zM663.872 547.456h-302.72a35.52 35.52 0 0 1 0-70.912h302.72a35.52 35.52 0 0 1 0 70.912zM663.872 748.352H351.168a35.52 35.52 0 0 1 0-70.912h312.704a35.52 35.52 0 0 1 0 70.912zM208.384 748.352H75.136a35.52 35.52 0 0 1 0-70.912h133.248a35.52 35.52 0 0 1 0 70.912zM106.304 624.96V407.68a35.52 35.52 0 0 1 70.912 0v217.28a35.52 35.52 0 0 1-70.912 0z" fill="" p-id="6699"></path><path d="M786.624 466.688h135.552v106.688h-135.552z" fill="#FFFFFF" p-id="6700"></path><path d="M954.176 605.376h-199.552V434.688h199.552v170.688z m-135.552-64h71.552v-42.688h-71.552v42.688z" fill="#FFFFFF" p-id="6701"></path><path d="M882.112 631.36a111.424 111.424 0 0 1 0-222.72 111.424 111.424 0 0 1 0 222.72z m0-158.656a47.36 47.36 0 0 0 0 94.72 47.36 47.36 0 0 0 0-94.72zM148.416 258.176a30.208 30.208 0 0 1-22.144-10.624 40.96 40.96 0 0 1-9.536-25.664l-1.408-28.864a38.784 38.784 0 0 1 8.128-25.216 27.904 27.904 0 0 1 24.96-9.984 25.92 25.92 0 0 1 24.256 9.664 35.904 35.904 0 0 1 6.528 24.832l0.64 29.632c0 19.904-14.144 36.224-31.424 36.224z" fill="" p-id="6702"></path></svg>