<?xml version="1.0" standalone="no"?><!DOCTYPE svg PUBLIC "-//W3C//DTD SVG 1.1//EN" "http://www.w3.org/Graphics/SVG/1.1/DTD/svg11.dtd"><svg t="1576574156109" class="icon" viewBox="0 0 1024 1024" version="1.1" xmlns="http://www.w3.org/2000/svg" p-id="2587" xmlns:xlink="http://www.w3.org/1999/xlink" width="48" height="48"><defs><style type="text/css"></style></defs><path d="M678 464.9H316.8c-11.1 0-20.1 9-20.1 20.1 0 11.1 9 20.1 20.1 20.1H678c11.1 0 20.1-9 20.1-20.1 0-11.2-9-20.1-20.1-20.1zM678 585.3H316.8c-11.1 0-20.1 9-20.1 20.1 0 11.1 9 20.1 20.1 20.1H678c11.1 0 20.1-9 20.1-20.1 0-11.2-9-20.1-20.1-20.1z" p-id="2588"></path><path d="M818.5 282.3H647.7l-82.1-115.9c-1.2-1.6-2.5-3.1-4.1-4.4-35.9-29.2-92.3-29.2-128.2 0-1.5 1.3-2.9 2.7-4.1 4.4l-82.1 115.9H176.3c-5.8 0-11.4 2.3-15.6 6.4s-6.4 9.7-6.4 15.6v441.5c0 12.1 9.8 22 22 22h642.1c12.2 0 22-9.9 22-22V304.3c0.1-12.1-9.7-22-21.9-22z m-355.3-87.7c19.2-13.8 49.2-13.8 68.4 0l62.1 87.7H401.1l62.1-87.7z m333.3 529.2H198.3V326.3H316l-37.2 52.5c-7 9.9-4.7 23.6 5.2 30.7 3.9 2.7 8.3 4 12.7 4 6.9 0 13.7-3.2 18-9.3l55.2-78h255l55.2 78c7 9.9 20.8 12.3 30.7 5.2 9.9-7 12.2-20.8 5.2-30.7l-37.2-52.5h117.6v397.6z" p-id="2589"></path></svg>