<?xml version="1.0" encoding="utf-8"?>
<!-- Svg Vector Icons : http://www.sfont.cn -->
<!DOCTYPE svg PUBLIC "-//W3C//DTD SVG 1.1//EN" "http://www.w3.org/Graphics/SVG/1.1/DTD/svg11.dtd">
<svg version="1.1" xmlns="http://www.w3.org/2000/svg" xmlns:xlink="http://www.w3.org/1999/xlink" x="0px" y="0px" viewBox="0 0 1000 1000" enable-background="new 0 0 1000 1000" xml:space="preserve">
<metadata> Svg Vector Icons : http://www.sfont.cn </metadata>
<g><path d="M728.3,290.4C728.3,135.8,602.5,10,447.9,10S167.5,135.8,167.5,290.4c0,110.8,64.8,206.6,158.4,252.1C148.5,594.4,16.4,756.2,10.5,948.9c-0.1,0.9-0.5,1.7-0.5,2.6c0,0.5,0.3,0.9,0.3,1.4c0.2,5.4,1.5,10.5,3.8,15.1c6.2,12.9,19.1,21.9,34.3,21.9c15.6,0,28.8-9.3,34.8-22.6c1.6-3.5,2.2-7.4,2.7-11.4c0.2-1.5,0.9-2.8,0.9-4.4s-0.7-3-0.9-4.6c0-5.7,0.1-11.4-0.1-17c-0.1-3.4,0.7-6,1.4-8.9h-1c20.6-180.9,175.3-322.4,361-322.4c81.1,0,155.5,27.7,215.9,73.4c0.3-0.3,0.5-0.5,0.8-0.8c6.1,4.4,13.1,7.5,21.2,7.5c0.3,0,0.5-0.1,0.7-0.1c14.9-0.3,27.6-9.2,33.1-22.1c1.9-4.5,3.1-9.5,3.1-14.7c0-10.9-4.9-20.4-12.4-27.2c0,0,0.1,0,0.1-0.1c-41.8-32-89.5-56.3-140.9-71.7C663,497.7,728.3,401.6,728.3,290.4z M447.9,496.9c-113.8,0-206.4-92.7-206.4-206.5S334.1,84,447.9,84c113.8,0,206.5,92.7,206.5,206.5S561.7,496.9,447.9,496.9z"/><path d="M936.5,862c14.9-20.5,23.9-45.7,23.9-73.1c0-68.7-55.7-124.5-124.5-124.5c-68.7,0-124.5,55.7-124.5,124.5c0,68.7,55.7,124.5,124.5,124.5c13.6,0,26.7-2.3,38.9-6.3l45.5,66.1c12,17.4,35.7,21.8,53.1,9.8c17.4-12,21.8-35.7,9.8-53.1L936.5,862z M786.4,788.9c0-27.3,22.2-49.5,49.5-49.5s49.5,22.2,49.5,49.5c0,27.3-22.2,49.5-49.5,49.5S786.4,816.2,786.4,788.9z"/></g>
</svg>